<?xml version="1.0" encoding="UTF-8" standalone="no"?>
<svg
   height="24"
   viewBox="0 -960 960 960"
   width="24"
   fill="#000000"
   version="1.1"
   id="svg1"
   xmlns="http://www.w3.org/2000/svg"
   xmlns:svg="http://www.w3.org/2000/svg">
  <defs
     id="defs1" />
  <path
     d="m 200,-120 c -22,0 -40.83333,-7.83333 -56.5,-23.5 C 127.83333,-159.16667 120,-178 120,-200 v -160 h 80 v 160 h 160 v 80 z m 400,0 v -80 h 160 v -160 h 80 v 160 c 0,22 -7.83333,40.83333 -23.5,56.5 C 800.83333,-127.83333 782,-120 760,-120 Z M 120,-600 v -160 c 0,-22 7.83333,-40.83333 23.5,-56.5 15.66667,-15.66667 34.5,-23.5 56.5,-23.5 h 160 v 80 H 200 v 160 z m 640,0 V -760 H 600 v -80 h 160 c 22,0 40.83333,7.83333 56.5,23.5 15.66667,15.66667 23.5,34.5 23.5,56.5 v 160 z m -421.5,261.5 c -39,-39 -58.5,-86.16667 -58.5,-141.5 0,-55.33333 19.5,-102.5 58.5,-141.5 39,-39 86.16667,-58.5 141.5,-58.5 55.33333,0 102.5,19.5 141.5,58.5 39,39 58.5,86.16667 58.5,141.5 0,55.33333 -19.5,102.5 -58.5,141.5 -39,39 -86.16667,58.5 -141.5,58.5 -55.33333,0 -102.5,-19.5 -141.5,-58.5 z M 565,-395 c 23.33333,-23.33333 35,-51.66667 35,-85 0,-33.33333 -11.66667,-61.66667 -35,-85 -23.33333,-23.33333 -51.66667,-35 -85,-35 -33.33333,0 -61.66667,11.66667 -85,35 -23.33333,23.33333 -35,51.66667 -35,85 0,33.33333 11.66667,61.66667 35,85 23.33333,23.33333 51.66667,35 85,35 33.33333,0 61.66667,-11.66667 85,-35 z"
     id="path1" />
  <path
     d="m 100.54262,-915.6327 -56.56854,56.5686 814.69684,814.696795 57.355,-55.782105 z"
     style="opacity:1;fill:#000000;fill-opacity:1;stroke-width:47.4909"
     id="path2" />
</svg>
